HIERARCHY
ROOT Hips
{
     OFFSET 22.22180 96.40440 9.97856
     CHANNELS 6 Xposition Yposition Zposition Zrotation Xrotation Yrotation
     JOINT Spine
     {
          OFFSET -0.00000 11.89050 0.00000
          CHANNELS 3 Zrotation Xrotation Yrotation
          JOINT Spine1
          {
               OFFSET -0.00000 25.65740 0.12766
               CHANNELS 3 Zrotation Xrotation Yrotation
               JOINT HEad
               {
                    OFFSET 0.00000 8.73416 0.01134
                    CHANNELS 3 Zrotation Xrotation Yrotation
                    End Site
                    {
                         OFFSET -0.29000 12.77420 2.51395
                    }
               }
               JOINT LeftShoulder1
               {
                    OFFSET 8.99000 -0.36225 -0.22000
                    CHANNELS 3 Zrotation Xrotation Yrotation
                    JOINT LeftArm
                    {
                         OFFSET 10.28270 -0.00338 0.32212
                         CHANNELS 3 Zrotation Xrotation Yrotation
                         JOINT LeftForeArm
                         {
                              OFFSET 32.76690 0.09914 -1.42434
                              CHANNELS 3 Zrotation Xrotation Yrotation
                              JOINT LeftHand
                              {
                                   OFFSET 27.56430 0.08536 1.02216
                                   CHANNELS 3 Zrotation Xrotation Yrotation
                                   End Site
                                   {
                                        OFFSET 16.74430 -0.60000 1.50291
                                   }
                              }
                         }
                    }
               }
               JOINT RightShoulder
               {
                    OFFSET -8.99000 -0.36225 -0.22000
                    CHANNELS 3 Zrotation Xrotation Yrotation
                    JOINT RightArm
                    {
                         OFFSET -10.28270 -0.00338 0.32212
                         CHANNELS 3 Zrotation Xrotation Yrotation
                         JOINT RightForeArm
                         {
                              OFFSET -32.89710 0.09914 -1.42434
                              CHANNELS 3 Zrotation Xrotation Yrotation
                              JOINT RightHand
                              {
                                   OFFSET -27.49210 0.08536 1.02216
                                   CHANNELS 3 Zrotation Xrotation Yrotation
                                   End Site
                                   {
                                        OFFSET -16.63120 -0.60000 1.50291
                                   }
                              }
                         }
                    }
               }
          }
     }
     JOINT LeftUpLeg
     {
          OFFSET 8.94580 -8.66707 0.10165
          CHANNELS 3 Zrotation Xrotation Yrotation
          JOINT LeftLeg
          {
               OFFSET 0.00000 -44.42270 1.37270
               CHANNELS 3 Zrotation Xrotation Yrotation
               JOINT LeftFoot
               {
                    OFFSET -0.25355 -42.09240 -1.46059
                    CHANNELS 3 Zrotation Xrotation Yrotation
                    JOINT LeftToes
                    {
                         OFFSET -0.04000 -4.41509 8.49910
                         CHANNELS 3 Zrotation Xrotation Yrotation
                         End Site
                         {
                              OFFSET 0.08000 -0.04745 9.77979
                         }
                    }
               }
          }
     }
     JOINT RightUpLeg
     {
          OFFSET -8.94580 -8.66707 0.10165
          CHANNELS 3 Zrotation Xrotation Yrotation
          JOINT RightLeg
          {
               OFFSET 0.00000 -44.42270 1.37270
               CHANNELS 3 Zrotation Xrotation Yrotation
               JOINT RightFoot
               {
                    OFFSET 0.25355 -42.09240 -1.46059
                    CHANNELS 3 Zrotation Xrotation Yrotation
                    JOINT RightToes
                    {
                         OFFSET 0.04000 -4.41509 8.49910
                         CHANNELS 3 Zrotation Xrotation Yrotation
                         End Site
                         {
                              OFFSET -0.08000 -0.13745 9.77979
                         }
                    }
               }
          }
     }
}
MOTION
Frames: 6
Frame Time: 0.01667
15.70230 96.33950 7.28736 -10.02680 -8.07401 -58.08800 -7.58800 10.30230 -1.48205 -3.10204 20.85000 -5.07184 4.19924 -7.50535 7.98167 -0.00000 -0.00000 0.00000 -128.82700 -68.34340 -106.75700 -33.61350 55.79010 -79.75880 22.12880 6.14691 -15.52050 21.06860 0.46265 -0.39630 79.79740 -1.59774 68.90460 15.08910 32.25700 101.27000 16.46990 11.92480 9.24571 23.46390 -3.71690 -21.18570 -35.52000 18.21200 86.06000 -2.96406 5.49394 0.29090 8.16783 -8.39845 -50.55890 -18.94570 7.51673 8.60454 36.29450 3.72890 -40.54180 -45.71040 8.68485 6.81169 19.94600 -58.39450 31.03100 
15.60460 96.43850 7.34831 -10.51210 -7.96171 -59.57210 -7.04317 10.38270 -1.52953 -3.36756 21.00570 -4.85862 4.24480 -7.52979 7.75222 -0.00000 -0.00000 0.00000 -130.52499 -68.23950 -108.23900 -34.81190 56.15410 -78.63160 22.59960 6.06517 -15.50450 20.97640 0.43327 -0.51864 79.58880 -1.04325 68.97400 14.91910 32.06850 101.43900 16.07510 11.86090 9.13029 23.45080 -3.56958 -21.51550 -35.38920 17.46450 85.10940 -3.27341 6.64343 0.35201 7.25422 -12.97130 -52.03560 -18.43250 7.75773 8.51143 35.53220 3.91820 -38.45810 -45.54660 9.76381 7.23970 19.21530 -58.75980 29.18090 
15.46890 96.31610 7.32117 -10.74540 -7.94261 -60.33280 -6.95889 10.50200 -1.71456 -3.37765 21.17500 -5.14224 3.94343 -7.05708 8.06901 -0.00000 -0.00000 0.00000 -131.37601 -67.90420 -108.65500 -34.93920 55.90960 -78.58230 21.83070 6.19587 -15.54530 20.45530 0.58160 0.16553 79.95160 -1.32630 69.22340 14.67550 32.09100 101.58700 16.17890 11.86910 9.10279 23.25830 -4.13181 -21.00550 -35.10670 17.56400 82.24470 -4.28857 6.11765 0.46210 7.09370 -13.69350 -52.24000 -18.34640 7.79353 8.77851 35.47720 3.98286 -39.91530 -47.58060 8.98588 7.26086 21.30550 -59.84540 32.14280 
15.31180 96.10480 7.35790 -10.90790 -7.63197 -61.21560 -6.18364 10.55250 -1.86256 -3.52090 21.18800 -4.97960 4.56080 -7.64822 8.32312 -0.00000 -0.00000 0.00000 -136.89700 -67.36880 -113.34000 -36.66580 57.98910 -76.75960 22.64270 5.95579 -16.01560 20.84390 0.51844 -0.14042 79.68880 -1.33566 69.39440 15.46600 32.42410 100.95200 16.46500 11.90180 9.09600 23.54940 -4.08016 -20.79270 -34.25020 15.48670 83.37220 -0.24007 8.22439 -0.03180 4.35959 -24.01730 -56.93880 -17.96970 7.28928 9.36410 35.55880 4.64362 -39.56790 -47.55850 8.49917 7.04158 20.21790 -59.50420 30.39700 
15.22880 95.98130 7.44757 -11.28060 -7.46307 -61.93410 -5.63036 10.70320 -1.98549 -3.32595 21.42270 -5.01488 3.92477 -6.64573 8.09733 -0.00000 -0.00000 0.00000 -145.32600 -66.39240 -120.21100 -40.77500 60.76050 -73.32470 22.96460 6.00475 -15.47740 20.46590 0.46563 -0.34884 79.80400 -1.09395 69.58900 15.33400 32.32240 100.96200 16.56630 11.91760 9.12209 23.60410 -4.31159 -21.01250 -33.94600 14.20070 81.71640 -0.23166 7.66262 -0.03072 4.30545 -24.23700 -56.26980 -17.57790 7.06683 9.08283 35.34200 5.73749 -39.53030 -47.72960 8.25251 6.96073 20.85550 -60.02290 31.09050 
15.16210 95.89270 7.64748 -11.42620 -7.27574 -62.64350 -5.00922 10.70060 -2.08978 -3.43017 21.37020 -4.89638 4.09407 -6.69022 7.97855 -0.00000 -0.00000 0.00000 -142.86200 -65.82970 -118.08900 -38.76630 60.44650 -74.38310 23.27120 5.78384 -16.28590 20.58270 0.47588 -0.31049 79.32700 -0.96153 69.45570 14.57630 31.99480 101.50200 15.70170 11.84870 9.35265 23.32000 -4.84694 -22.31620 -33.37080 12.64180 81.41480 -1.28776 6.92930 0.10627 4.73452 -22.83470 -56.11440 -17.46620 6.70239 8.96677 35.32060 6.58145 -39.35570 -47.76060 8.36729 7.01694 21.29680 -60.45270 31.48140 
